<?xml version="1.0" standalone="no"?><svg xmlns="http://www.w3.org/2000/svg" viewBox="0 0 1440 320"><path fill="#0099ff" fill-opacity="1" d="M0,288L0,224L72,224L72,96L144,96L144,256L216,256L216,288L288,288L288,32L360,32L360,192L432,192L432,224L504,224L504,32L576,32L576,96L648,96L648,128L720,128L720,128L792,128L792,32L864,32L864,64L936,64L936,288L1008,288L1008,192L1080,192L1080,160L1152,160L1152,224L1224,224L1224,320L1296,320L1296,256L1368,256L1368,224L1440,224L1440,0L1368,0L1368,0L1296,0L1296,0L1224,0L1224,0L1152,0L1152,0L1080,0L1080,0L1008,0L1008,0L936,0L936,0L864,0L864,0L792,0L792,0L720,0L720,0L648,0L648,0L576,0L576,0L504,0L504,0L432,0L432,0L360,0L360,0L288,0L288,0L216,0L216,0L144,0L144,0L72,0L72,0L0,0L0,0Z"></path></svg>